<?xml version="1.0" encoding="UTF-8" standalone="no"?>
<!-- Generator: Adobe Illustrator 19.2.1, SVG Export Plug-In . SVG Version: 6.00 Build 0)  -->

<svg
   version="1.1"
   id="logo"
   x="0px"
   y="0px"
   viewBox="0 0 167.7 35.5"
   style="enable-background:new 0 0 167.7 35.5;"
   xml:space="preserve"
   sodipodi:docname="snk_logo.svg"
   inkscape:version="1.1.2 (b8e25be833, 2022-02-05)"
   xmlns:inkscape="http://www.inkscape.org/namespaces/inkscape"
   xmlns:sodipodi="http://sodipodi.sourceforge.net/DTD/sodipodi-0.dtd"
   xmlns="http://www.w3.org/2000/svg"
   xmlns:svg="http://www.w3.org/2000/svg"><defs
   id="defs846" /><sodipodi:namedview
   id="namedview844"
   pagecolor="#505050"
   bordercolor="#ffffff"
   borderopacity="1"
   inkscape:pageshadow="0"
   inkscape:pageopacity="0"
   inkscape:pagecheckerboard="1"
   showgrid="false"
   inkscape:zoom="4"
   inkscape:cx="53.5"
   inkscape:cy="38.5"
   inkscape:window-width="1920"
   inkscape:window-height="1017"
   inkscape:window-x="-8"
   inkscape:window-y="-8"
   inkscape:window-maximized="1"
   inkscape:current-layer="logo" />
<style
   type="text/css"
   id="style836">
	.st0{fill:#0097E0;}
	.st1{fill:#0096DF;}
</style>
<path
   id="S"
   class="st0"
   d="M7.3,11.4c0,6.3,4.2,11.4,9.4,11.4h26.1c0.6,0,1.2,0.6,1.2,1.4c0,0.8-0.5,1.4-1.2,1.4H7.2v10.1h39.8  c5.2,0,9.4-5.2,9.4-11.5c0-6.3-4.2-11.5-9.4-11.5H21c-0.6,0-1.2-0.6-1.2-1.4c0-0.8,0.5-1.4,1.2-1.4h35.3V0H16.7  C11.5,0,7.3,5.1,7.3,11.4z" />
<polygon
   id="N"
   class="st0"
   points="96,0 96,22.2 72.2,0 59.2,0 59.2,35.5 71.7,35.5 71.7,13.2 95.5,35.5 108.5,35.5 108.5,0 " />
<polygon
   id="K"
   class="st0"
   points="160.4,0 144.1,0 123.9,15.6 123.9,0 111.2,0 111.2,35.5 123.9,35.5 123.9,19.8 144.1,35.5   160.4,35.5 137.4,17.8 " />
<path
   id="mark"
   class="st1"
   d="M166.7,1.1C166,0.4,165.1,0,164.1,0c-1,0-1.9,0.4-2.6,1.1c-0.7,0.7-1.1,1.6-1.1,2.6  c0,1,0.4,1.9,1.1,2.6c0.7,0.7,1.6,1.1,2.6,1.1c1,0,1.9-0.4,2.6-1.1c0.7-0.7,1.1-1.6,1.1-2.6C167.7,2.6,167.4,1.8,166.7,1.1z   M166.3,5.9c-0.6,0.6-1.3,0.9-2.2,0.9c-0.9,0-1.6-0.3-2.2-0.9c-0.6-0.6-0.9-1.4-0.9-2.2c0-0.9,0.3-1.6,0.9-2.2  c0.6-0.6,1.4-0.9,2.2-0.9c0.9,0,1.6,0.3,2.2,0.9c0.6,0.6,0.9,1.4,0.9,2.2C167.2,4.5,166.9,5.3,166.3,5.9z" />
<path
   id="R"
   class="st1"
   d="M165.8,3.1V3c0-0.6-0.5-1.1-1.1-1.1l0,0h-2.1v3.7h0.6V4.2l1.3,0c0.3,0,0.5,0.2,0.5,0.4l0,0l0.1,0.9h0.6  l-0.1-0.9c0-0.3-0.2-0.5-0.3-0.7C165.6,3.8,165.8,3.5,165.8,3.1z M163.2,2.5h1.5l0,0c0.3,0,0.5,0.2,0.5,0.5v0.2  c0,0.3-0.2,0.5-0.5,0.5h-1.5V2.5z" />
<path
   style="fill:#ffffff;stroke:none;stroke-width:0.14867;fill-opacity:1"
   d="M 111.27965,17.691755 V 0 h 6.24415 6.24415 v 7.8051862 c 0,4.3472898 0.0575,7.8051858 0.12979,7.8051858 0.0714,0 4.67087,-3.510518 10.22108,-7.8011508 l 10.09129,-7.80115096 8.02075,-0.00403512 c 4.43744,-0.00223243 7.95766,0.05262827 7.87953,0.12279788 -0.0777,0.0697581 -5.19231,4.026285 -11.36584,8.792282 -6.17353,4.765997 -11.28028,8.715135 -11.34832,8.775862 -0.068,0.06073 4.94957,4.009026 11.15026,8.773996 6.2007,4.764969 11.33755,8.720046 11.41523,8.789058 0.0777,0.06902 -3.46811,0.124103 -7.87953,0.122421 l -8.02075,-0.0031 -10.02425,-7.802128 C 128.52386,23.284057 123.95783,19.7731 123.89045,19.7731 c -0.0674,0 -0.1225,3.512334 -0.1225,7.805186 v 7.805187 h -6.24415 -6.24415 z"
   id="path1392" /><path
   style="fill:#a0a0a0;stroke:none;stroke-width:0.14867"
   d="M 59.24508,17.691755 V 0 L 65.675066,0.00396786 72.105053,0.00793573 84.073005,11.181671 96.040957,22.355406 96.079066,11.177703 96.117173,0 h 6.168877 6.16887 v 17.691755 17.691756 l -6.50432,-0.0082 -6.504323,-0.0082 L 83.55266,24.20778 71.659043,13.048458 71.620935,24.215984 71.582826,35.383511 H 65.413953 59.24508 Z"
   id="path1875" /><path
   style="fill:#a0a0a0;stroke:none;stroke-width:0.14867"
   d="m 7.2105053,30.70569 v -4.982232 l 18.0593217,-0.03892 18.05932,-0.03892 0.338619,-0.338638 c 0.263125,-0.263142 0.338617,-0.50631 0.338617,-1.090731 0,-0.639722 -0.06232,-0.805704 -0.417133,-1.110897 L 43.172116,22.746543 29.61425,22.743962 C 18.423483,22.74183 15.880987,22.704212 15.051778,22.528494 12.016425,21.885275 9.2603623,19.179513 8.0885399,15.692343 6.1564445,9.9427122 8.4259769,3.3282664 13.143766,0.95912245 14.994368,0.02980135 13.52354,0.08942748 35.866689,0.03795402 l 20.404987,-0.0470084 V 4.9015899 9.812234 H 38.4513 c -17.721228,0 -17.822525,0.00169 -18.206573,0.303782 -0.474293,0.373079 -0.649626,1.16832 -0.393775,1.786 0.388525,0.937982 -0.495435,0.883622 14.36896,0.883622 9.26337,0 13.812676,0.0517 14.350762,0.163088 1.57359,0.325743 2.909842,1.105202 4.305957,2.511733 1.106516,1.114773 1.393448,1.515396 2.035735,2.842346 0.411217,0.849568 0.856508,1.946078 0.989535,2.43669 0.335732,1.238195 0.455238,4.256334 0.225233,5.688265 -0.683114,4.252833 -3.388407,7.697956 -6.991629,8.903664 -0.775832,0.259608 -1.86974,0.275734 -21.371343,0.315056 L 7.2105053,35.68792 Z"
   id="path1914" /><path
   style="fill:#fffffe;stroke:none;stroke-width:0.14867;fill-opacity:1"
   d="M 59.24508,17.691755 V 0 h 2.651947 c 1.458571,0 4.370393,0.04421837 6.470716,0.09826306 L 72.186511,0.1965261 84.113734,11.326795 96.040957,22.457064 96.07906,11.228532 96.117161,0 h 6.168879 6.16888 v 17.715352 17.715354 l -3.01057,-0.09754 c -1.65582,-0.05365 -4.58601,-0.09772 -6.51154,-0.09793 l -3.500966,-3.91e-4 -11.886401,-11.147756 -11.8864,-11.147758 -0.0381,11.222093 -0.0381,11.222092 H 65.413959 59.24508 Z"
   id="path1953" /><path
   style="fill:#ffffff;stroke:none;stroke-width:0.14867;fill-opacity:1"
   d="M 7.2105053,30.672595 V 25.719947 H 25.325229 c 17.972343,0 18.116855,-0.0023 18.385898,-0.299645 0.166145,-0.183587 0.297067,-0.611873 0.338025,-1.105775 0.0607,-0.731957 0.02903,-0.841179 -0.344176,-1.187057 l -0.411028,-0.380927 -6.779952,-0.01702 C 32.785021,22.720165 26.422414,22.66563 22.374867,22.608337 13.988534,22.489627 14.247764,22.526146 12.267519,21.184433 10.286714,19.84234 8.5670483,17.321452 7.8565751,14.718351 7.439418,13.189931 7.4781099,9.5247686 7.9279856,7.9538564 8.8851612,4.6115132 10.848298,2.139008 13.561501,0.85863371 14.374675,0.47489273 14.732819,0.40662134 16.534905,0.29182632 17.661785,0.22004281 27.063554,0.13931425 37.427726,0.1124295 L 56.271676,0.06354815 V 4.9378911 9.812234 H 38.51258 c -12.882206,0 -17.860323,0.046123 -18.127717,0.1679558 -0.202742,0.092375 -0.448685,0.3612442 -0.54654,0.5974862 -0.188758,0.455703 -0.110399,1.5532 0.127911,1.79151 0.341483,0.341483 1.708847,0.410506 8.504112,0.429275 3.965778,0.01095 10.187626,0.06574 13.82633,0.121738 5.995246,0.09227 6.678579,0.128009 7.28484,0.38099 1.139911,0.475661 2.259695,1.266415 3.383631,2.389407 0.915085,0.914315 1.203948,1.337675 1.899103,2.783339 1.023103,2.127668 1.252866,3.183537 1.256174,5.772696 0.003,2.377139 -0.276678,3.710165 -1.167046,5.561747 -1.144752,2.38059 -2.681716,3.955094 -4.910965,5.030916 l -1.248809,0.602668 -4.251989,0.04445 c -2.338593,0.02445 -11.69479,0.06568 -20.791549,0.09164 l -16.5395607,0.04719 z"
   id="path2584" /><path
   style="fill:#ffffff;stroke:none;stroke-width:0.00929189;fill-opacity:1"
   d="m 163.88568,7.390568 c -0.72564,-0.052418 -1.37076,-0.2895006 -1.93736,-0.7119817 -0.18003,-0.1342401 -0.3093,-0.248252 -0.48329,-0.4262518 -0.60068,-0.6145258 -0.95055,-1.3482812 -1.04179,-2.1848504 -0.0208,-0.1907507 -0.0208,-0.5481207 6e-5,-0.739175 0.086,-0.7886535 0.40889,-1.4946304 0.959,-2.0967806 0.31165,-0.34113879 0.70251,-0.64167785 1.08249,-0.83236519 l 0.0918,-0.0460716 h 1.54396 1.54396 l 0.13107,0.0678471 c 0.51122,0.26462451 1.0186,0.71375519 1.34595,1.19142239 0.32689,0.4769977 0.51893,0.9931456 0.62394,1.6769673 0.0555,0.3611116 0.0599,0.4887321 0.0277,0.7991024 -0.0983,0.9489797 -0.58537,1.8267206 -1.37408,2.4761339 -0.54638,0.4498735 -1.20042,0.7287783 -1.89555,0.8083273 -0.1249,0.014293 -0.5116,0.025355 -0.61791,0.017676 z m 0.68759,-0.6162199 c 0.57116,-0.077903 1.05129,-0.2885524 1.496,-0.6563579 0.13549,-0.1120577 0.36945,-0.3508574 0.46846,-0.4781565 0.35393,-0.455036 0.56114,-0.9533967 0.64309,-1.5467569 0.0236,-0.170449 0.0237,-0.6187762 2e-4,-0.7851646 -0.12068,-0.8558434 -0.50323,-1.536673 -1.1605,-2.065312 -0.44401,-0.35711921 -0.93575,-0.55925127 -1.52158,-0.62544611 -0.99063,-0.11193621 -1.93099,0.20847391 -2.60962,0.88917771 -0.51049,0.5120586 -0.7855,1.0744597 -0.87186,1.7829967 -0.0229,0.1881968 -0.0227,0.623263 3.6e-4,0.7944564 0.11607,0.8600334 0.506,1.5500026 1.18007,2.0880846 0.26369,0.2104958 0.62379,0.4023539 0.92727,0.4940446 0.2205,0.066617 0.40309,0.1001029 0.70941,0.1301003 0.0204,0.002 0.16261,0.00237 0.31593,8.074e-4 0.21996,-0.00223 0.30913,-0.00697 0.42277,-0.022474 z"
   id="path3067" /><path
   style="fill:#ffffff;stroke:none;stroke-width:0.00929189;fill-opacity:1"
   d="M 162.6034,3.7492769 V 1.9048371 l 1.08947,3.74e-5 c 0.91181,3.13e-5 1.10315,0.00225 1.17331,0.013635 0.28059,0.045509 0.53987,0.2042714 0.71289,0.4365027 0.0741,0.099496 0.14999,0.25701 0.17911,0.3718875 0.063,0.248603 0.0467,0.5587997 -0.0404,0.7659244 -0.0657,0.1562547 -0.19107,0.2932369 -0.33315,0.3638641 -0.0451,0.022416 -0.0833,0.041526 -0.085,0.042467 -0.005,0.00311 0.0276,0.062219 0.10263,0.1834325 0.1277,0.2063161 0.17543,0.3205169 0.18822,0.4503271 0.0132,0.1337563 0.0982,0.9103386 0.10214,0.9330385 l 0.004,0.025553 h -0.2971 c -0.16341,0 -0.29721,-0.00314 -0.29734,-0.00697 -1.2e-4,-0.00383 -0.0246,-0.2247215 -0.0543,-0.4908634 -0.049,-0.4385433 -0.0564,-0.4888946 -0.0785,-0.5372453 -0.0333,-0.072721 -0.12326,-0.1613682 -0.20141,-0.1984532 -0.12519,-0.059406 -0.10468,-0.058042 -0.87246,-0.058042 h -0.69787 V 4.896824 5.5937157 h -0.29734 -0.29734 z m 2.25112,-0.062934 c 0.18019,-0.053444 0.29849,-0.1827733 0.33763,-0.3691389 0.0222,-0.1056247 0.0139,-0.4085081 -0.0135,-0.4931403 -0.0386,-0.1194615 -0.12321,-0.2203686 -0.22745,-0.271413 -0.11116,-0.054427 -0.0879,-0.053133 -0.95602,-0.053133 h -0.79715 V 3.1038774 3.708237 l 0.80143,-0.003 c 0.72357,-0.00271 0.80663,-0.00454 0.85501,-0.018893 z"
   id="path3476" /><path
   style="fill:#ffffff;stroke:none;stroke-width:0.00929189;fill-opacity:1"
   d="m 162.57814,0.34289299 c 0.0494,-0.0287654 0.25481,-0.1100483 0.39694,-0.15708536 0.37427,-0.12386979 0.7141,-0.17752773 1.12431,-0.17752773 0.41191,0 0.74085,0.05125368 1.11751,0.17412451 0.12814,0.041802 0.3228,0.11835264 0.3864,0.15195684 0.0336,0.0177492 0.0202,0.0179103 -1.50391,0.0180373 -1.06596,8.881e-5 -1.53273,-0.002828 -1.52125,-0.009506 z"
   id="path3885" /><path
   style="fill:#ffffff;stroke:none;stroke-width:0.00929189;fill-opacity:1"
   d="m 153.7407,5.1073691 0.003,-0.042752 1.24047,-0.9588179 c 1.72867,-1.3361736 3.98294,-3.0813465 4.55303,-3.52478623 0.26319,-0.20472347 0.50024,-0.38888719 0.52678,-0.40925273 0.0265,-0.0203655 0.0485,-0.0417205 0.0488,-0.0474555 9.6e-4,-0.0188585 -0.16428,-0.03359193 -0.55698,-0.04966182 -0.72795,-0.02978902 -2.8259,-0.06161035 -4.50192,-0.06828442 -0.26064,-0.00103788 0.83264,-0.00289321 2.4295,-0.00412296 2.48704,-0.001915271 2.90143,-3.7291e-4 2.88977,0.01075565 -0.007,0.0071454 -1.46871,1.13885481 -3.24718,2.51490991 -1.77847,1.3760551 -3.26832,2.5289861 -3.31079,2.5620688 l -0.0772,0.06015 z"
   id="path4220" /><path
   style="fill:#ffffff;stroke:none;stroke-width:0.00390625;fill-opacity:1"
   d="m 165.57535,0.3479719 c 0.0208,-0.001457 0.0335,-0.004145 0.0356,-0.007513 0.003,-0.004251 0.006,-0.003729 0.0184,0.002757 l 0.0152,0.008001 -0.0508,-4.8827e-4 c -0.0463,-4.4568e-4 -0.048,-6.8615e-4 -0.0184,-0.002757 z"
   id="path4703" /><path
   style="fill:#ffffff;stroke:none;stroke-width:0.00552427;fill-opacity:1"
   d="m 94.034153,20.477357 c -1.099882,-1.027017 -2.01843,-1.884481 -2.041218,-1.905476 l -0.04143,-0.03817 0.05834,0.0015 0.05834,0.0015 1.963067,1.831296 c 1.079687,1.007213 1.965147,1.832125 1.967689,1.833137 0.0025,0.001 0.0046,-0.823692 0.0046,-1.832677 v -1.834518 h 0.02559 0.02559 l -0.0035,0.236162 c -0.0019,0.12989 -0.0051,0.896175 -0.007,1.702857 -0.0019,0.806682 -0.0051,1.557823 -0.0069,1.669202 l -0.0034,0.202508 z"
   id="path5297" /><path
   style="fill:#ffffff;stroke:none;stroke-width:0.00552427;fill-opacity:1"
   d="m 93.945765,20.497802 c -1.148496,-1.071615 -2.091904,-1.951969 -2.096461,-1.956341 -0.0072,-0.0069 -0.0016,-0.0077 0.04449,-0.0064 l 0.05277,0.0016 2.035253,1.900349 c 1.11939,1.045192 2.039785,1.904079 2.045323,1.908636 0.0085,0.007 0.0098,0.01524 0.0084,0.0544 l -0.0016,0.04611 z"
   id="path5669" /><path
   style="fill:#ffffff;stroke:none;stroke-width:0.00552427;fill-opacity:1"
   d="M 85.921066,12.903121 C 83.792321,10.915389 82.034061,9.2735259 82.013823,9.2545362 l -0.0368,-0.034527 h 0.05147 0.05147 l 3.888919,3.6271308 c 2.138905,1.994921 3.898826,3.636873 3.910935,3.648781 l 0.02202,0.02165 -0.05516,-1.98e-4 -0.05516,-1.99e-4 -3.870447,-3.614058 z"
   id="path6041" /><path
   style="fill:#ffffff;stroke:none;stroke-width:0.00552427;fill-opacity:1"
   d="M 88.170063,15.107694 C 87.339116,14.332261 85.579538,12.690221 84.25989,11.458715 l -2.399361,-2.2391018 0.05504,0.00158 0.05504,0.00158 3.895846,3.6377338 c 2.142714,2.000753 3.901176,3.642028 3.907691,3.647277 0.01143,0.0092 0.01,0.0095 -0.04071,0.0097 l -0.05256,1.21e-4 -1.510813,-1.409878 z"
   id="path6413" /></svg>
